HIERARCHY
ROOT Hips
{
	OFFSET 0.00000 0.00000 0.00000
	CHANNELS 6 Xposition Yposition Zposition Zrotation Yrotation Xrotation 
	JOINT LHipJoint
	{
		OFFSET 0 0 0
		CHANNELS 3 Zrotation Yrotation Xrotation
		JOINT LeftUpLeg
		{
			OFFSET 1.85742 -1.74412 1.01653
			CHANNELS 3 Zrotation Yrotation Xrotation
			JOINT LeftLeg
			{
				OFFSET 2.54803 -7.00067 0.00000
				CHANNELS 3 Zrotation Yrotation Xrotation
				JOINT LeftFoot
				{
					OFFSET 2.51202 -6.90173 0.00000
					CHANNELS 3 Zrotation Yrotation Xrotation
					JOINT LeftToeBase
					{
						OFFSET 0.17547 -0.48209 1.64281
						CHANNELS 3 Zrotation Yrotation Xrotation
						End Site
						{
							OFFSET 0.00000 -0.00000 0.86587
						}
					}
				}
			}
		}
	}
	JOINT RHipJoint
	{
		OFFSET 0 0 0
		CHANNELS 3 Zrotation Yrotation Xrotation
		JOINT RightUpLeg
		{
			OFFSET -1.95533 -1.74413 1.01654
			CHANNELS 3 Zrotation Yrotation Xrotation
			JOINT RightLeg
			{
				OFFSET -2.49465 -6.85400 0.00000
				CHANNELS 3 Zrotation Yrotation Xrotation
				JOINT RightFoot
				{
					OFFSET -2.54783 -7.00010 0.00000
					CHANNELS 3 Zrotation Yrotation Xrotation
					JOINT RightToeBase
					{
						OFFSET -0.18513 -0.50864 1.69288
						CHANNELS 3 Zrotation Yrotation Xrotation
						End Site
						{
							OFFSET -0.00000 -0.00000 0.89242
						}
					}
				}
			}
		}
	}
	JOINT LowerBack
	{
		OFFSET 0 0 0
		CHANNELS 3 Zrotation Yrotation Xrotation
		JOINT Spine
		{
			OFFSET 0.02173 2.16290 -0.15998
			CHANNELS 3 Zrotation Yrotation Xrotation
			JOINT Spine1
			{
				OFFSET 0.00940 2.17323 -0.00467
				CHANNELS 3 Zrotation Yrotation Xrotation
				JOINT Neck
				{
					OFFSET 0 0 0
					CHANNELS 3 Zrotation Yrotation Xrotation
					JOINT Neck1
					{
						OFFSET 0.01475 1.85823 0.31113
						CHANNELS 3 Zrotation Yrotation Xrotation
						JOINT Head
						{
							OFFSET 0.01902 1.88783 -0.37187
							CHANNELS 3 Zrotation Yrotation Xrotation
							End Site
							{
								OFFSET 0.00489 1.93211 -0.16169
							}
						}
					}
				}
				JOINT LeftShoulder
				{
					OFFSET 0 0 0
					CHANNELS 3 Zrotation Yrotation Xrotation
					JOINT LeftArm
					{
						OFFSET 3.34199 1.32384 -0.07862
						CHANNELS 3 Zrotation Yrotation Xrotation
						JOINT LeftForeArm
						{
							OFFSET 5.27950 -0.00000 0.00000
							CHANNELS 3 Zrotation Yrotation Xrotation
							JOINT LeftHand
							{
								OFFSET 3.53504 -0.00000 0.00000
								CHANNELS 3 Zrotation Yrotation Xrotation
								JOINT LeftFingerBase
								{
									OFFSET 0 0 0
									CHANNELS 3 Zrotation Yrotation Xrotation
									JOINT LeftHandIndex1
									{
										OFFSET 0.66795 -0.00000 0.00000
										CHANNELS 3 Zrotation Yrotation Xrotation
										End Site
										{
											OFFSET 0.53852 -0.00000 0.00000
										}
									}
								}
								JOINT LThumb
								{
									OFFSET 0 0 0
									CHANNELS 3 Zrotation Yrotation Xrotation
									End Site
									{
										OFFSET 0.54674 -0.00000 0.54674
									}
								}
							}
						}
					}
				}
				JOINT RightShoulder
				{
					OFFSET 0 0 0
					CHANNELS 3 Zrotation Yrotation Xrotation
					JOINT RightArm
					{
						OFFSET -3.16149 1.45719 -0.50507
						CHANNELS 3 Zrotation Yrotation Xrotation
						JOINT RightForeArm
						{
							OFFSET -5.25035 -0.00000 0.00000
							CHANNELS 3 Zrotation Yrotation Xrotation
							JOINT RightHand
							{
								OFFSET -3.58884 -0.00000 0.00000
								CHANNELS 3 Zrotation Yrotation Xrotation
								JOINT RightFingerBase
								{
									OFFSET 0 0 0
									CHANNELS 3 Zrotation Yrotation Xrotation
									JOINT RightHandIndex1
									{
										OFFSET -0.77924 -0.00000 0.00000
										CHANNELS 3 Zrotation Yrotation Xrotation
										End Site
										{
											OFFSET -0.62824 -0.00000 0.00000
										}
									}
								}
								JOINT RThumb
								{
									OFFSET 0 0 0
									CHANNELS 3 Zrotation Yrotation Xrotation
									End Site
									{
										OFFSET -0.63783 -0.00000 0.63783
									}
								}
							}
						}
					}
				}
			}
		}
	}
}
MOTION
Frames: 13
Frame Time: 0.153846
0.00 0.00 0.00 0 0 0 0 0 0 -21 0 0 0 0 0 0 0 0 0 0 0 0 0 0 21 0 0 0 0 0 0 0 0 0 0 0 0 0 0 0 0 0 0 0 0 0 0 -16 0 0 21 0 0 11 0 0 0 -8 0 0 0 0 0 0 0 0 0 0 0 0 0 0 0 0 0 0 0 0 8 0 0 0 0 0 0 0 0 0 0 0 0 0 0 0 0 0
0.00 0.00 0.00 -143.5650 85.4779 -135.7160 0.0000 0.0000 0.0000 -16.5765 -15.6415 -14.9654 1.9193 8.6959 24.8485 0.6909 5.1949 -18.4401 1.3244 -7.2881 -20.5718 0.0000 0.0000 0.0000 19.5339 12.9977 0.4449 -0.0975 -2.0140 5.5445 1.4108 -22.0372 -17.2630 -0.1098 2.1365 -5.8829 -2.0575 1.6022 3.2344 -0.2921 2.0423 -0.9200 0.7366 1.0513 -2.8199 -0.3594 -0.7193 -22.5521 1.7903 -1.0232 30.0549 0.6395 -0.0403 14.0543 -0.0000 0.0000 0.0000 -74.4604 12.9127 12.5218 11.7844 -19.4805 -2.0298 -0.0000 0.0000 -25.3189 40.9445 52.2421 34.4470 -7.1250 0.0000 -0.0000 -80.4891 87.9874 -78.4972 -0.0000 0.0000 0.0000 78.0982 -15.0992 -6.6664 -9.3430 15.7054 -1.2914 0.0000 0.0000 19.3362 -20.1188 18.7287 -6.7083 7.1250 -0.0000 -0.0000 5.2337 -10.1921 4.2432
0.00 0.00 0.00 -139.4710 85.2135 -132.2080 0.0000 0.0000 0.0000 -17.3546 -12.8038 -15.0745 1.9818 8.8280 25.2588 0.8068 2.0616 -17.8334 1.4581 -7.6321 -21.6020 0.0000 0.0000 0.0000 19.0334 11.5029 1.5648 -0.0743 -1.7590 4.8400 1.3638 -21.4085 -16.0204 -0.2893 3.4587 -9.5586 -1.9379 1.7713 3.0642 -0.4752 2.2756 -0.7275 0.4780 1.1610 -2.5205 -0.5831 -0.7904 -22.2501 1.5631 -0.8900 31.0671 0.6262 -0.0124 14.4319 0.0000 -0.0000 0.0000 -70.7286 12.2469 11.0313 11.6527 -19.2817 -1.9861 -0.0000 0.0000 -20.8094 42.6163 52.2869 36.0492 -7.1250 0.0000 -0.0000 -102.2520 -88.5344 103.6886 0.0000 -0.0000 0.0000 74.8597 -11.1972 -40.9813 -5.7122 9.7813 -0.4892 0.0000 0.0000 52.8038 -20.6202 16.2214 -6.0005 7.1250 -0.0000 -0.0000 4.7564 -12.7564 3.6015
0.00 0.00 0.00 -131.6470 83.7063 -127.0680 0.0000 0.0000 0.0000 -19.0529 -10.9400 -9.5644 1.3699 7.4075 20.9283 0.7319 0.8539 -16.4940 0.7056 -5.3688 -14.9635 0.0000 0.0000 0.0000 17.0747 5.0714 -7.5906 -1.2586 -7.1119 20.0474 0.5050 -12.9776 -8.6420 -2.0563 8.9824 -25.7402 -3.1441 2.3292 3.9113 -0.1106 2.9566 -0.2702 1.4619 1.5172 -2.6231 -0.3679 -1.5053 -21.9145 1.0404 -1.6988 33.0505 0.2478 -0.3378 15.2671 -0.0000 0.0000 0.0000 -76.0506 1.3734 33.3495 25.5714 -36.7823 -8.6297 -0.0000 0.0000 -32.3927 41.6940 53.5882 35.6358 -7.1250 0.0000 -0.0000 -115.2693 -87.5008 117.5520 -0.0000 0.0000 0.0000 79.1344 -5.5066 22.3678 -20.2159 30.9016 -5.6418 0.0000 0.0000 0.8573 -21.4693 19.5742 -7.5063 7.1250 -0.0000 -0.0000 4.4167 -9.1187 3.6721
0.00 0.00 0.00 -185.3230 83.6768 -177.5150 0.0000 0.0000 0.0000 -23.4843 -7.4498 6.0143 0.1320 2.3417 6.4510 0.9056 0.5194 -18.1797 1.6028 -7.9845 -22.6671 0.0000 0.0000 0.0000 7.8516 22.8159 -24.3004 -0.3090 -3.5735 9.8796 0.5932 -16.4725 -16.2180 -0.4448 4.2793 -11.8637 -4.8610 0.4127 4.3384 0.1452 0.3631 1.2620 2.8578 0.1953 -1.1632 0.3505 -1.2414 -20.9257 0.9677 -1.1584 37.3226 0.2641 0.1339 17.1627 -0.0000 0.0000 0.0000 -82.6465 2.6632 4.0439 16.2888 -25.9106 -3.7713 -0.0000 0.0000 -18.5946 45.3186 52.7341 38.8248 -7.1250 0.0000 -0.0000 -158.3026 -88.0355 159.0404 -0.0000 0.0000 0.0000 76.5875 -13.2288 4.1756 -8.8215 14.8755 -1.1539 0.0000 0.0000 21.3393 -13.2509 16.5008 -3.8265 7.1250 -0.0000 -0.0000 9.6813 -13.2281 7.3166
0.00 0.00 0.00 -196.5160 79.0118 -187.2220 0.0000 0.0000 0.0000 -17.9951 3.5407 -10.0622 4.5703 12.8829 38.9318 0.2419 -4.5374 -8.8290 1.4659 -7.6516 -21.6609 0.0000 0.0000 0.0000 13.4367 19.4068 -16.2036 -0.3839 -3.9791 11.0179 1.8711 -23.3964 -7.3767 -0.1063 2.1020 -5.7876 3.0864 -0.5522 6.7286 2.5307 -0.3790 1.5880 0.9059 -0.1665 -2.1385 2.0896 -0.1260 -19.9634 0.1292 0.8700 41.3312 0.0885 1.3055 19.2399 0.0000 0.0000 0.0000 -84.2121 -2.3926 28.9704 28.4848 -39.5587 -10.4310 -0.0000 0.0000 -21.3288 35.3995 49.8659 28.5161 -7.1250 0.0000 -0.0000 -35.3275 84.5171 -32.0315 0.0000 0.0000 0.0000 73.3588 -7.4637 17.0063 -23.5555 34.6906 -7.4520 0.0000 0.0000 5.6630 -30.3283 20.5245 -11.5912 7.1250 -0.0000 -0.0000 -1.1394 -6.5359 -1.0025
0.00 0.00 0.00 -223.3320 81.4273 -219.8690 0.0000 0.0000 0.0000 -14.0179 -5.9479 -7.7799 0.6185 5.0329 14.0023 -0.0345 3.5866 -2.8180 3.1329 -10.9072 -31.9675 0.0000 0.0000 0.0000 14.4288 11.6748 -3.3240 -0.9505 -6.2088 17.3915 0.4635 -15.4059 -16.0564 -0.2922 3.4759 -9.6066 4.0330 0.0288 5.4577 2.6713 0.3714 1.9883 0.4611 0.2250 -1.0066 2.4306 -0.1011 -18.9371 -2.9167 3.6419 46.9069 -0.8015 2.3829 23.7215 -0.0000 -0.0000 0.0000 -85.0738 -1.1517 43.4690 47.8779 -52.1029 -24.4893 -0.0000 0.0000 -18.7947 35.8182 48.7534 28.4858 -7.1250 0.0000 -0.0000 -26.0903 83.9846 -23.3212 -0.0000 -0.0000 0.0000 64.8875 9.9815 35.2044 -22.8549 33.9297 -7.0571 0.0000 0.0000 14.1652 -40.0181 22.9432 -18.1236 7.1250 -0.0000 -0.0000 -6.6399 -1.2189 -6.5416
0.00 0.00 0.00 -370.4560 80.2570 -358.8420 0.0000 0.0000 0.0000 -12.3045 -7.9555 -16.7158 1.3237 7.2865 20.5668 -0.1547 12.9613 -16.3555 2.2758 -9.4184 -27.1131 0.0000 0.0000 0.0000 12.0791 18.9025 -8.6038 -0.0485 -1.4213 3.9088 0.2377 -8.6110 -2.8768 -1.6389 8.0694 -22.9251 -4.9079 1.2639 7.0130 -3.3677 1.4863 3.5432 -0.8268 0.7706 -0.2952 4.4977 3.5026 -21.3903 -1.1380 5.0838 36.8956 -0.1555 2.8331 17.2592 -0.0000 -0.0000 0.0000 -86.7835 -23.6524 51.7749 41.8540 -49.1308 -19.8301 -0.0000 0.0000 -10.5834 37.5210 55.3200 32.2718 -7.1250 0.0000 -0.0000 -102.7767 -85.6005 107.1156 -0.0000 -0.0000 0.0000 66.8101 22.9308 64.5047 -64.4731 57.3886 -38.0869 0.0000 0.0000 16.5048 -30.2029 24.4813 -13.5614 7.1250 -0.0000 -0.0000 -0.4665 -2.1979 -0.4482
0.00 0.00 0.00 -511.0680 73.0876 -498.9940 0.0000 0.0000 0.0000 -1.6608 -18.7982 -25.7806 2.6132 10.0408 29.1091 0.5049 -0.7292 -13.1907 2.5553 -9.9378 -28.7754 0.0000 0.0000 0.0000 23.1517 -4.5425 -9.2742 0.0000 -0.0000 0.0000 0.1936 -8.0319 -5.0909 -0.7658 5.5883 -15.5946 -3.7301 1.3284 11.8062 -9.4676 1.6711 3.9495 -8.1909 1.1315 -2.2612 -4.3281 -2.5748 -21.7209 10.1701 -4.8111 33.2467 4.2867 -0.7696 15.8507 0.0000 -0.0000 0.0000 -92.4767 -35.6467 85.4713 17.4859 -27.4938 -4.3093 -0.0000 -0.0000 14.8818 35.1845 45.9077 26.8557 -7.1250 0.0000 -0.0000 -13.4761 81.3899 -11.3291 0.0000 -0.0000 0.0000 52.0113 36.4512 89.4434 -61.6276 56.7283 -35.6987 0.0000 -0.0000 -10.7579 -10.4466 -8.3135 1.5271 7.1250 -0.0000 -0.0000 14.0324 -38.0756 2.4503
0.00 0.00 0.00 -510.3840 73.2732 -498.7370 0.0000 0.0000 0.0000 -1.9719 -18.2121 -25.7036 2.6741 10.1477 29.4564 0.5052 -0.8055 -13.1722 2.9924 -10.6828 -31.2173 0.0000 0.0000 0.0000 23.0530 -4.4655 -8.7960 0.0000 0.0000 -0.0000 0.1986 -8.1111 -5.0534 -0.8754 5.9651 -16.6831 -3.8792 1.3876 11.9173 -9.7591 1.7378 3.9142 -8.4481 1.1766 -2.3435 -4.0829 -2.8424 -21.7287 10.0730 -5.2844 33.5473 4.1278 -0.9386 16.0429 -0.0000 0.0000 0.0000 -91.7360 -35.9698 87.6295 17.0018 -26.8602 -4.0882 -0.0000 -0.0000 14.6940 34.2768 46.5898 26.3410 -7.1250 0.0000 -0.0000 -17.9942 81.5863 -15.2195 -0.0000 0.0000 0.0000 52.9036 37.0414 86.1000 -58.1779 55.8045 -32.8294 0.0000 -0.0000 -48.0667 -14.6200 -15.1431 3.8983 7.1250 -0.0000 -0.0000 12.0857 -45.2539 -0.0769
0.00 0.00 0.00 -510.3570 70.7323 -497.5130 0.0000 0.0000 0.0000 -0.8927 -17.6875 -29.2798 3.2229 11.0474 32.4399 0.5777 -4.2774 -13.5416 2.7001 -10.1930 -29.6042 0.0000 0.0000 0.0000 24.0674 -5.9924 -9.9825 0.0000 -0.0000 0.0000 0.1890 -8.0655 -5.5725 -1.0063 6.3830 -17.8998 -7.6640 1.6890 12.8007 -9.1938 1.9388 5.5158 -5.6846 1.2977 -1.2071 -4.0324 -4.3206 -18.7613 9.0439 -7.1166 32.6098 3.2444 -1.9644 15.0259 0.0000 -0.0000 0.0000 -93.3816 -38.6389 98.1973 17.2947 -27.2446 -4.2213 -0.0000 -0.0000 10.4648 41.5215 48.5652 33.5758 -7.1250 0.0000 -0.0000 -6.1092 86.5005 -5.7257 0.0000 -0.0000 0.0000 41.4865 33.7171 84.2483 -70.4648 58.5078 -43.1668 0.0000 0.0000 14.7176 -7.4652 4.4458 -0.5820 7.1250 -0.0000 -0.0000 14.3467 -25.4605 6.9957
0.00 0.00 0.00 -507.8680 69.4691 -493.4750 0.0000 0.0000 0.0000 -0.6732 -16.1491 -33.6414 3.8175 11.9135 35.4268 0.5678 -7.7634 -13.6736 1.9343 -8.7279 -24.9478 0.0000 0.0000 0.0000 24.1333 -5.5257 -11.6065 0.0000 -0.0000 0.0000 0.2514 -8.8492 -3.2845 -2.0642 8.9985 -25.7906 -6.6751 2.0264 15.3783 -9.4061 2.3840 6.4036 -6.6685 1.5878 -1.5742 -1.0395 -2.5643 -20.0708 1.1476 -2.6768 34.0150 0.2433 -0.7991 15.3246 -0.0000 0.0000 0.0000 -96.7780 -41.2382 108.2111 17.8184 -27.9240 -4.4639 -0.0000 -0.0000 6.2995 39.4457 52.2442 33.0434 -7.1250 0.0000 -0.0000 -70.7436 87.3449 -68.2156 -0.0000 0.0000 0.0000 41.1971 28.7912 74.6724 -62.2434 56.8787 -36.2140 0.0000 -0.0000 -76.1112 -21.6572 -14.2740 5.5917 7.1250 -0.0000 -0.0000 5.4372 -45.2188 -0.0295
0.00 0.00 0.00 -497.9040 88.9107 -493.4100 0.0000 0.0000 0.0000 -20.3047 -10.1364 -11.5087 1.1019 6.6699 18.7409 0.2545 5.4239 -13.0637 1.9722 -8.8080 -25.1966 0.0000 0.0000 0.0000 16.7121 3.4812 -18.9702 -3.8661 -11.9800 35.6613 -0.5287 0.6923 -13.5141 -0.0028 0.3392 -0.9321 -3.9785 0.0598 4.4588 0.4616 -0.0618 1.5668 2.7104 -0.0277 -0.8820 -8.1559 -8.4770 -16.4376 6.0233 -11.2230 32.3005 1.9263 -4.7409 14.7856 -0.0000 0.0000 0.0000 -83.1228 0.8945 42.5855 15.1260 -24.3214 -3.2777 -0.0000 0.0000 -15.1043 29.5359 52.0570 24.0767 -7.1250 0.0000 -0.0000 -56.6289 82.7150 -50.3019 -0.0000 0.0000 0.0000 78.0100 -8.4247 36.3535 -16.2543 25.8643 -3.7562 0.0000 0.0000 5.1987 -9.8707 19.0750 -3.2546 7.1250 -0.0000 -0.0000 11.8987 -10.9565 9.6358
